<svg xmlns="http://www.w3.org/2000/svg" viewBox="0 0 512 512">
  <rect width="512" height="512" rx="112" fill="#0a0a0b" />
  <path
    d="M256.00 232.00 L257.77 231.45 L259.62 231.03 L261.54 230.75 L263.52 230.62 L265.54 230.65 L267.60 230.84 L269.67 231.20 L271.76 231.73 L273.84 232.44 L275.89 233.32 L277.91 234.38 L279.88 235.61 L281.78 237.01 L283.60 238.59 L285.32 240.33 L286.94 242.23 L288.43 244.28 L289.78 246.47 L290.98 248.80 L292.02 251.26 L292.89 253.82 L293.56 256.49 L294.05 259.24 L294.32 262.07 L294.39 264.95 L294.23 267.87 L293.85 270.82 L293.25 273.77 L292.41 276.70 L291.34 279.61 L290.03 282.47 L288.50 285.26 L286.74 287.97 L284.75 290.57 L282.55 293.05 L280.14 295.39 L277.53 297.57 L274.72 299.58 L271.74 301.40 L268.60 303.01 L265.30 304.40 L261.87 305.55 L258.31 306.46 L254.66 307.12 L250.93 307.50 L247.13 307.61 L243.29 307.44 L239.44 306.98 L235.58 306.22 L231.75 305.18 L227.96 303.84 L224.24 302.21 L220.62 300.28 L217.10 298.08 L213.73 295.59 L210.51 292.84 L207.47 289.82 L204.64 286.56 L202.02 283.06 L199.64 279.34 L197.52 275.42 L195.68 271.32 L194.13 267.05 L192.88 262.63 L191.95 258.10 L191.35 253.46 L191.09 248.75 L191.17 243.98 L191.61 239.20 L192.40 234.41 L193.55 229.65 L195.06 224.95 L196.92 220.32 L199.13 215.81 L201.70 211.43 L204.60 207.22 L207.82 203.19 L211.36 199.38 L215.21 195.80 L219.33 192.49 L223.73 189.46 L228.37 186.74 L233.24 184.35 L238.30 182.29 L243.55 180.60 L248.95 179.29 L254.48 178.36 L260.10 177.84 L265.78 177.73 L271.51 178.03 L277.24 178.75 L282.95 179.90 L288.60 181.47 L294.16 183.46 L299.61 185.87 L304.90 188.69 L310.02 191.91 L314.92 195.52 L319.58 199.51 L323.96 203.85 L328.05 208.53 L331.82 213.54 L335.24 218.84 L338.28 224.42 L340.93 230.24 L343.16 236.28 L344.97 242.51 L346.32 248.89 L347.21 255.40 L347.64 262.01 L347.58 268.67 L347.03 275.35 L346.00 282.02 L344.47 288.64 L342.46 295.17 L339.96 301.58 L336.98 307.84 L333.53 313.90 L329.64 319.73 L325.30 325.30 L320.54 330.57 L315.37 335.51 L309.83 340.10 L303.94 344.29 L297.72 348.07 L291.20 351.41 L284.42 354.29 L277.40 356.68 L270.19 358.57 L262.81 359.94 L255.31 360.78 L247.73 361.08 L240.10 360.82 L232.47 360.00 L224.87 358.63 L217.34 356.70 L209.94 354.22 L202.69 351.19 L195.64 347.62 L188.83 343.53 L182.30 338.94 L176.08 333.85 L170.22 328.30 L164.74 322.30 L159.69 315.89 L155.08 309.10 L150.96 301.95 L147.34 294.48 L144.26 286.72 L141.74 278.73 L139.79 270.53 L138.43 262.16 L137.67 253.68 L137.53 245.11 L138.01 236.52 L139.12 227.94 L140.85 219.42 L143.21 211.00 L146.19 202.74 L149.77 194.67 L153.94 186.84 L158.70 179.29 L164.01 172.08 L169.86 165.23 L176.23 158.79 L183.07 152.80 L190.36 147.30 L198.07 142.31 L206.16 137.87 L214.59 134.00 L223.31 130.74 L232.30 128.11 L241.49 126.12 L250.85 124.80 L260.32 124.15 L269.85 124.19 L279.41 124.92 L288.93 126.35 L298.36 128.47 L307.66 131.28 L316.78 134.76 L325.66 138.92 L334.25 143.73 L342.51 149.17 L350.39 155.22 L357.85 161.85 L364.84 169.04 L371.32 176.74 L377.26 184.93 L382.61 193.56 L387.34 202.60 L391.43 212.00 L394.84 221.70 L397.56 231.68 L399.56 241.86 L400.82 252.21 L401.33 262.66 L401.09 273.17 L400.08 283.68 L398.31 294.13 L395.78 304.47 L392.50 314.65 L388.48 324.60 L383.73 334.27 L378.27 343.61 L372.12 352.58 L365.32 361.11 L357.89 369.16 L349.86 376.68 L341.28 383.63 L332.18 389.97 L322.61 395.66 L312.62 400.66 L302.25 404.95 L291.56 408.49 L280.59 411.26 L269.41 413.25 L258.07 414.42 L246.64 414.77 L235.16 414.30 L223.70 413.00 L212.33 410.86 L201.09 407.90 L190.05 404.12 L179.28 399.53 L168.83 394.16 L158.75 388.03 L149.10 381.16 L139.94 373.59 L131.32 365.34 L123.29 356.46 L115.89 346.99 L109.16 336.97 L103.16 326.46 L97.91 315.50 L93.45 304.15 L89.80 292.46 L87.00 280.50 L85.06 268.33 L84.00 256.00"
    fill="none"
    stroke="#34d399"
    stroke-width="34"
    stroke-linecap="round"
    stroke-linejoin="round"
  />
</svg>
