<svg xmlns="http://www.w3.org/2000/svg" viewBox="0 0 32 32">
  <rect width="32" height="32" rx="7" fill="#0a0a0b" />
  <path
    d="M16.00 12.40 L16.29 12.35 L16.58 12.33 L16.88 12.33 L17.19 12.35 L17.49 12.40 L17.79 12.48 L18.10 12.58 L18.39 12.71 L18.68 12.86 L18.96 13.04 L19.23 13.24 L19.48 13.47 L19.72 13.72 L19.94 13.99 L20.14 14.29 L20.32 14.60 L20.47 14.93 L20.60 15.27 L20.70 15.63 L20.77 16.00 L20.82 16.38 L20.83 16.77 L20.81 17.16 L20.76 17.55 L20.68 17.94 L20.57 18.33 L20.42 18.71 L20.24 19.08 L20.03 19.44 L19.79 19.79 L19.52 20.12 L19.22 20.43 L18.89 20.72 L18.54 20.99 L18.16 21.23 L17.77 21.44 L17.35 21.61 L16.91 21.76 L16.46 21.87 L16.00 21.95 L15.53 21.99 L15.05 21.99 L14.57 21.96 L14.09 21.88 L13.61 21.77 L13.14 21.62 L12.68 21.42 L12.23 21.19 L11.79 20.93 L11.38 20.62 L10.98 20.28 L10.62 19.91 L10.28 19.51 L9.97 19.07 L9.69 18.61 L9.45 18.13 L9.24 17.62 L9.08 17.10 L8.96 16.55 L8.88 16.00 L8.84 15.44 L8.85 14.87 L8.90 14.30 L9.00 13.73 L9.15 13.16 L9.34 12.61 L9.57 12.06 L9.86 11.54 L10.18 11.03 L10.55 10.55 L10.95 10.09 L11.40 9.67 L11.88 9.27 L12.39 8.92 L12.94 8.60 L13.51 8.33 L14.10 8.10 L14.72 7.92 L15.35 7.78 L16.00 7.70 L16.66 7.67 L17.32 7.69 L17.98 7.76 L18.64 7.88 L19.29 8.06 L19.93 8.29 L20.55 8.57 L21.15 8.90 L21.73 9.29 L22.28 9.72 L22.80 10.19 L23.29 10.71 L23.73 11.26 L24.13 11.86 L24.48 12.49 L24.79 13.14 L25.04 13.83 L25.24 14.54 L25.39 15.26 L25.48 16.00 L25.50 16.75 L25.47 17.50 L25.38 18.25 L25.23 19.00 L25.03 19.74 L24.76 20.46 L24.43 21.17 L24.05 21.85 L23.61 22.50 L23.12 23.12 L22.57 23.70 L21.98 24.24 L21.35 24.73 L20.67 25.18 L19.96 25.57 L19.22 25.91 L18.45 26.18 L17.65 26.40 L16.83 26.56 L16.00 26.65 L15.16 26.68 L14.32 26.63 L13.47 26.53 L12.64 26.35 L11.81 26.11 L11.00 25.80 L10.22 25.43 L9.46 25.00 L8.74 24.50 L8.05 23.95 L7.41 23.34 L6.81 22.67 L6.27 21.96 L5.78 21.21 L5.35 20.41 L4.98 19.58 L4.67 18.72 L4.44 17.83 L4.27 16.92 L4.18 16.00"
    fill="none"
    stroke="#34d399"
    stroke-width="2.7"
    stroke-linecap="round"
    stroke-linejoin="round"
  />
</svg>
